<svg xmlns="http://www.w3.org/2000/svg" width="23.075" height="23.385" viewBox="0 0 23.075 23.385">
  <g id="Basket_Iconnn" data-name="Basket Iconnn" transform="translate(0.75 1.061)">
    <path id="Path_7266" data-name="Path 7266" d="M9.528,2.167,5.622,6.082" transform="translate(-2.181 -2.167)" fill="none" stroke="#fff" stroke-linecap="round" stroke-linejoin="round" stroke-miterlimit="10" stroke-width="1.5"/>
    <path id="Path_7267" data-name="Path 7267" d="M16.456,2.167l3.905,3.916" transform="translate(-2.227 -2.167)" fill="none" stroke="#fff" stroke-linecap="round" stroke-linejoin="round" stroke-miterlimit="10" stroke-width="1.5"/>
    <path id="Path_7268" data-name="Path 7268" d="M2.167,8.495c0-2,1.068-2.157,2.395-2.157H21.347c1.327,0,2.395.162,2.395,2.157,0,2.319-1.068,2.157-2.395,2.157H4.561C3.235,10.652,2.167,10.814,2.167,8.495Z" transform="translate(-2.167 -2.184)" fill="none" stroke="#fff" stroke-width="1.5"/>
    <path id="Path_7269" data-name="Path 7269" d="M10.573,15.167V19" transform="translate(-2.202 -2.222)" fill="none" stroke="#fff" stroke-linecap="round" stroke-width="1.5"/>
    <path id="Path_7270" data-name="Path 7270" d="M15.557,15.167V19" transform="translate(-2.224 -2.222)" fill="none" stroke="#fff" stroke-linecap="round" stroke-width="1.5"/>
    <path id="Path_7271" data-name="Path 7271" d="M3.792,10.833l1.521,9.32c.345,2.093,1.176,3.625,4.261,3.625h6.5c3.355,0,3.851-1.467,4.239-3.5l1.812-9.45" transform="translate(-2.174 -2.203)" fill="none" stroke="#fff" stroke-linecap="round" stroke-width="1.5"/>
  </g>
</svg>
