<svg xmlns="http://www.w3.org/2000/svg" xmlns:xlink="http://www.w3.org/1999/xlink" width="24" height="24" viewBox="0 0 24 24">
  <defs>
    <clipPath id="clip-path">
      <circle id="Ellipse_17" data-name="Ellipse 17" cx="12" cy="12" r="12" transform="translate(0 2)" fill="#fff"/>
    </clipPath>
  </defs>
  <g id="Mask_Group_3" data-name="Mask Group 3" transform="translate(0 -2)" clip-path="url(#clip-path)">
    <g id="Flag_of_Saudi_Arabia" transform="translate(0 6)">
      <path id="Path_7311" data-name="Path 7311" d="M0,0H39.549V26.366H0Z" transform="translate(-7.774 -5.183)" fill="#006c35"/>
      <path id="Path_7312" data-name="Path 7312" d="M20.883,12.493h-.557c-.062.081-.159.178-.213.178a.45.45,0,0,1-.244-.248c0-.05.085-.147.162-.209v-.151H9.937c-1.331,0-1.992-.012-2.437-.456H20.032v-.151c-.073-.058-.162-.159-.162-.209A.45.45,0,0,1,20.113,11a.45.45,0,0,1,.244.248c0,.05-.089.151-.162.209v.151h1.7c.456,0,.642.039.642.456,0,.445-.12.526-.309.526a.316.316,0,0,1-.255-.1h-.661a.288.288,0,0,1-.429,0Zm.429-.139H21.9a.462.462,0,0,1,0-.29h-1.7v.151a.749.749,0,0,1,.132.139h.557a.288.288,0,0,1,.429,0Z" transform="translate(-3.019 0.665)" fill="#fff"/>
      <path id="Path_7313" data-name="Path 7313" d="M20.685,9.18c.033.039.053.076,0,.141-.053.046-.089.072-.145.118-.023.039-.039.1.036.122.145.039.411-.131.411-.135a.1.1,0,0,0,.033-.112c-.033-.033-.1-.013-.148-.02-.023,0-.036-.043,0-.105a.444.444,0,0,0,.062-.108c.02-.046,0-.079-.079-.105a.705.705,0,0,0-.2,0c-.049.01-.066.033-.076.089C20.574,9.15,20.629,9.144,20.685,9.18Zm-.624-2.031c-.046.062-.079.112.01.161s.23.174.171.319c-.033.112,0,.2.1.039a.439.439,0,0,0-.079-.5C20.176,7.06,20.117,7.083,20.061,7.149Zm2.767-2.294c.125.108.194.076.115-.108s-.181-.378-.263-.552-.112-.141-.214-.01-.125.227-.082.3c.217,1.719.319,2.616.342,3.136a1.581,1.581,0,0,1-.92,1.666c-.25.161-.532.345.069.2.562-.135,1.164-.49,1.164-1.847C23.039,6.623,22.8,5.528,22.828,4.855Zm-.92-.348c-.069.108-.056.131.023.25a1.228,1.228,0,0,1,.148.552c0,.184.069.161.1-.01a1.333,1.333,0,0,0-.079-.713C22,4.345,21.964,4.431,21.908,4.506Zm.661,3.579a1.281,1.281,0,0,0-.273-.592c-.2-.283-.388-.542-.569-.792-.056-.647-.138-1.341-.138-1.706.092.085.161,0,.115-.141s-.138-.519-.2-.68-.125-.122-.217.02-.135.207-.079.312a11.836,11.836,0,0,0,.217,1.785c-.184-.237-.355-.463-.513-.67-.01-.237-.033-.473-.046-.713.1.076.148.056.092-.085s-.171-.467-.227-.6-.092-.141-.171-.033c-.125.184-.161.312-.056.486.01.151.033.312.043.454-.1-.128-.191-.26-.273-.378.1.053.184-.033.069-.131a4,4,0,0,1-.408-.378c-.1-.118-.194-.118-.194-.01s.01.2,0,.3-.023.174.112.325c.263.3.513.615.753.907a20.687,20.687,0,0,1,.125,2.205c-.013.26-.1.411-.25.454s-.3-.043-.434-.237c-.25-.345-.339-.279-.532.023a6.706,6.706,0,0,0-.411.723c-.089.194-.25.368-.4.108a1.523,1.523,0,0,1-.148-.756c0-.207-.033-.368-.112-.043-.2.8-.079.973.148,1.144.283.24.375.26.523.056.3-.391.375-.736.546-.93.135-.151.135-.033.2.043a.78.78,0,0,0,.555.312c.24.043.67-.151.638-.907-.023-.454-.056-1.071-.1-1.729.227.3.431.572.592.789a4.738,4.738,0,0,1,.1,1.134c-.023.358.056.358.135-.01a4.3,4.3,0,0,0-.01-.845c.306.391.486.651.611.835C22.523,8.358,22.6,8.552,22.569,8.085Zm-3.116-.851c0-.076.036-.1.171-.207.115-.085.434-.3.536-.4s.181-.184.2-.062.033.161-.092.227a4.376,4.376,0,0,0-.555.322C19.6,7.2,19.453,7.31,19.453,7.234ZM19.489,5.9c-.023.1-.161.1-.148-.01a1.018,1.018,0,0,0,0-.174.088.088,0,0,1,.158-.066,1.905,1.905,0,0,1,.217.4c.046.085.069.066.069-.053a1.927,1.927,0,0,1-.023-.368.3.3,0,0,1,.112-.174c.082-.053.125-.066.161.033s.089.1.056.174c-.046.105-.148-.108-.217.043a3.913,3.913,0,0,0-.01.519c0,.1-.046.237-.125.076A1.574,1.574,0,0,0,19.489,5.9ZM18.7,5.025c.161.076.332.122.207-.062a2.5,2.5,0,0,1-.3-.684c-.082-.214-.1-.2-.23-.02-.191.279-.02.552.023.874.161,1.157.319,2.337.365,2.649a2.214,2.214,0,0,1,.01.953c-.033.118.013.151.092.01a1.942,1.942,0,0,0,.069-1.394c-.056-.5-.24-1.818-.273-2.347m-.749-.033c.089.076.194.076.135-.085s-.1-.358-.158-.542-.092-.227-.161-.141-.135.131-.191.2a.223.223,0,0,0,0,.279,24.9,24.9,0,0,1,.3,2.965c.033.6.125.884-.273,1.295a1.784,1.784,0,0,1-.887.595c-.217.059-.306.145-.072.145a1.167,1.167,0,0,0,1.15-.532c.253-.266.375-.6.355-1.407C18.092,6.334,17.885,5.729,17.921,4.973ZM15.068,9.1a1.967,1.967,0,0,1,.26-.151c.092-.046.161-.033.092.151-.069.214-.033.279.115.227s.214-.1.329-.141.217-.043.056.076a1.45,1.45,0,0,1-.408.25c-.227.053-.342-.033-.3-.207s.079-.227-.056-.171C15,9.2,15.012,9.137,15.068,9.1ZM16.9,5.426c.043.131.1.194.135.033.023-.141.069-.184.092-.033s.125.131.148-.01.079-.217.1-.066a.444.444,0,0,1-.013.27.1.1,0,0,1-.171.033c-.079-.066-.1-.066-.158-.01-.125.108-.171.033-.194-.118C16.83,5.394,16.876,5.341,16.9,5.426Zm.759,2.725A8.315,8.315,0,0,0,16.4,5.87c-.02-.27-.033-.519-.033-.746.1.108.171.043.138-.1a5.265,5.265,0,0,0-.3-.733c-.046-.118-.171-.151-.227.02-.082.207-.092.25.01.391a5.925,5.925,0,0,0,.069.647c-.125-.174-.286-.388-.411-.572.194.076.309.02.138-.151s-.411-.368-.559-.5-.214-.043-.191.076a1.376,1.376,0,0,1,.01.3c-.01.1.023.164.171.217.3.368.592.746.864,1.137.033.322.1.68.135.973a6.976,6.976,0,0,1,.115,1.979c-.092.293,0,.421.148-.023a3.407,3.407,0,0,0,.033-1.525c-.036-.256-.046-.582-.079-.884a12.325,12.325,0,0,1,1.1,1.837C17.635,8.467,17.727,8.519,17.658,8.151ZM16.807,4.2c-.046.089-.079.151.01.217a.418.418,0,0,1,.171.434c-.033.151,0,.27.1.053a.767.767,0,0,0-.079-.67C16.919,4.085,16.863,4.118,16.807,4.2Zm-3.362,2.36a.4.4,0,0,0,.066.322.119.119,0,0,0,.207-.02c.033-.1.056-.108.125-.033s.339.01.214-.368c-.056-.151-.079-.118-.079.053,0,.273-.092.273-.194.013-.033-.1-.079-.1-.089.033,0,.247-.115.279-.184.03C13.487,6.488,13.468,6.4,13.445,6.564Zm1.568.388c.237-.053.1-.076-.059-.174s-.237-.1-.227.013c.013.062.013.128.036.214C14.841,6.984,14.92,6.975,15.012,6.952Zm-.467-.529c.181-.25.477-.174.818.053s.2.585-.125.769a1.957,1.957,0,0,1-.309.128c.036.076-.01.1-.112.033a7.568,7.568,0,0,0-.953.378c.329.023,1.693,0,1.965-.033s.227.023.148.25-.171.194-.4.227a7.774,7.774,0,0,0-1.285.368c-.388.151-.25.421.148.562.306.076.273.108.217.283s-.046.2-.421.151a1.6,1.6,0,0,1-1.4-1.006c-.565.766-1.124,1.19-1.647,1.058a.552.552,0,0,1-.408-.562,9.681,9.681,0,0,1-1.331.454c-.125.043-.227-.01-.056-.085a11.755,11.755,0,0,0,1.4-.779,3.262,3.262,0,0,1,.25-.661c.056-.118.092-.076.092.023,0,.076-.023.27-.013.411.082-.066.194-.128.25-.184.319-.27.67-.444.434-.874-.1-.2-.184-.335-.217-.424-.2-.076-.148-.184-.056-.368s.125-.227.306-.02c.263.293.3.421.115.4.283.69.214,1.048-.227,1.459a2.707,2.707,0,0,1-.67.5c-.023.184.056.368.417.312a2.091,2.091,0,0,0,1.239-1.111c-.1-.381-.329-1.062-.463-1.407-.069-.174,0-.25.056-.391s.1-.227.181-.03a5.578,5.578,0,0,1,.444,1.2c.125.552.1,1.025.4,1.285a1.141,1.141,0,0,0,.49.24c-.138-.368.148-.651.523-.779-.227-.207-.582-.174-.979-.194-.293-.013-.26-.046-.181-.293s.171-.283.388-.368c.3-.108.588-.217.9-.3C14.273,6.823,14.4,6.626,14.546,6.422ZM13.113,4.2c-.079.076-.079.089-.01.184a.785.785,0,0,1,.135.562c-.01.108.013.217.069.023a1.3,1.3,0,0,0-.023-.628C13.228,4.184,13.159,4.141,13.113,4.2Zm-1.545.424a1.212,1.212,0,0,0,.2,1.351c.217.227.375.118.467-.131s.171-.473.24-.638.125-.128.112.023c-.033.3-.056.789.263.973s.805-.128.976-.454c.513.647.966.345,1.022-.283a2.277,2.277,0,0,0-.135-.733c-.056-.131-.023-.131.056-.066s.217.118.148-.1a.91.91,0,0,0-.3-.421c-.112-.1-.135-.043-.181.033s-.036.1-.1.151-.059.1,0,.217c.191.473.375,1.167.066,1.233-.283.053-.463-.532-.477-.789a2.713,2.713,0,0,0-.125-.822C13.757,4.056,13.727,4,13.7,4c-.046,0-.112.187-.154.26s0,.1.033.247c.171.759.148,1.1-.217,1.3s-.555.013-.555-.227a4.294,4.294,0,0,1,.023-.746c.023-.217.079-.247,0-.355s-.148-.076-.25.062a4.663,4.663,0,0,0-.536,1.048c-.079.25-.237.164-.352-.043a1.576,1.576,0,0,1-.069-.864C11.67,4.506,11.647,4.431,11.568,4.628ZM11.1,4.444c.023-.066-.033-.131-.079-.033-.033.076-.046.128.023.174A.7.7,0,0,0,11.1,4.444Zm-.273-.1c.138-.335.592-.293.467.141a.89.89,0,0,1-.089.237c.066.089.033.2-.105.174a1.956,1.956,0,0,1-.92.68c-.227.1-.26.023-.089-.076a3.075,3.075,0,0,0,.828-.713A.371.371,0,0,1,10.828,4.345Zm-.079,1.2c-.135.164-.237.4-.046.542.105.085.319-.01.4-.174s.046-.194-.089-.053c-.194.2-.388.02-.184-.26C10.966,5.407,10.887,5.361,10.749,5.545Zm-.306,2.38a.647.647,0,0,1-.023.325c-.046.1,0,.141.069.02a.65.65,0,0,0,.079-.431c-.013-.108-.013-.141-.115-.184s-.148.02-.181.108C10.227,7.872,10.283,7.99,10.444,7.924ZM8.692,7.211c-.2.053-.237-.023-.227-.141s.023-.151.161-.1a.532.532,0,0,1,.194.194C8.774,7.178,8.728,7.2,8.692,7.211Zm.171-.486c-.2-.194-.375-.207-.546.033a.558.558,0,0,0-.135.486c.01.2-.033.279.135.335a.439.439,0,0,0,.332,0c.079-.023.191-.056.306-.1A.394.394,0,0,1,8.9,7.8c-.421.473-1.068.822-1.354.506a.922.922,0,0,1-.181-.766c.046-.273-.046-.151-.079-.056a1.417,1.417,0,0,0,0,1,.707.707,0,0,0,.989.25c.486-.207.963-.575.943-1.081,0-.1-.013-.184-.013-.25.046-.023.125-.076.181-.1.013.174-.01.391,0,.562a.859.859,0,0,1-.408.868,2.429,2.429,0,0,1-1,.411c-.786.105-.966-.368-.956-1.006,0-.1.046-.164.046-.306-.01-.27-.046-.227-.135.046a1.9,1.9,0,0,0,.079,1.361c.273.5,1.193.358,1.91.033a1.408,1.408,0,0,0,.749-1.558c0-.161-.013-.335-.023-.519.023-.01.033-.03.046-.043.1.316.578.227.726.043.079-.085.079-.1.148,0,.1.141.454.184.546-.01a1.064,1.064,0,0,0,.046-.552c-.023-.151-.059-.138-.161-.062s-.023.1-.01.2c.046.411-.329.378-.375-.043-.023-.26-.069-.161-.1-.043-.161.506-.628.6-.582.02.013-.171-.1-.118-.158-.053a1.35,1.35,0,0,1-.158.128c-.036-.473-.069-1.016-.128-1.663.138.161.263-.023.171-.207-.066-.141-.171-.454-.237-.628s-.092-.118-.24.023-.112.184-.046.335a3.364,3.364,0,0,0,.059.746c.033.27.125.832.168,1.545-.066.033-.168.1-.237.131A1.118,1.118,0,0,0,8.863,6.725ZM6.421,8.1c.01.108.01.184.01.227a1.262,1.262,0,0,1-.066.247c-.138.467.066.694.181.519s.158-.151.148-.01c-.01.467-.477.5-.513.108a1.645,1.645,0,0,1,.138-.92C6.352,8.131,6.4,8.023,6.421,8.1Zm-.24-.684a2.255,2.255,0,0,1,.966-.638c.138-.043.207-.1.207.033s0,.131-.115.164a4.085,4.085,0,0,0-.989.454C6.161,7.494,6.046,7.569,6.181,7.415ZM8.035,4.161a.271.271,0,0,0,.046.26.159.159,0,0,0,.227.023c.056-.066.056-.076.115.01.033.066.145.043.181-.023a.2.2,0,0,0,.023-.181c-.036-.076-.036-.056-.059.03-.02.141-.158.108-.168-.062s-.036-.076-.082.033c-.079.161-.191.128-.191-.013C8.127,4.118,8.09,4.02,8.035,4.161Zm-.49,2.271c.036.391.148,1.114.148,1.364s.046.184.115.043a1,1,0,0,0,.046-.5c-.023-.214-.036-.572-.082-1.058a.827.827,0,0,0,.207-.237c.089-.164.112-.151.148-.023.066.26.339.434.7.184.342-.227.194-.7.046-1.223.125.023.171-.076.089-.2a.935.935,0,0,0-.158-.207c-.056-.066-.115-.118-.171-.053s-.1.118-.135.161-.036.085.01.194a3.161,3.161,0,0,1,.25.812C8.8,5.86,8.728,5.9,8.6,5.9a.343.343,0,0,1-.365-.293,1.53,1.53,0,0,1-.089-.552.587.587,0,0,0-.092-.463c-.138-.174-.148-.141-.181-.056a.747.747,0,0,0-.023.4c.056.237.089.444.125.585a.539.539,0,0,1-.227.411c-.036-.325-.092-.759-.115-1.1.194-.066.092-.312-.069-.582-.112-.207-.158-.122-.237.01s-.023.184.033.293c-.046.085.033.214.069.454.01.151.046.582.079.963a.326.326,0,0,1-.306-.227.913.913,0,0,1-.036-.684c.059-.161.115-.411.013-.473s-.217.01-.3.128a1.469,1.469,0,0,0-.273.769,1.335,1.335,0,0,1-.1.431c-.046.089-.125.1-.207-.033a2.182,2.182,0,0,1-.168-.993c0-.131-.036-.151-.082,0A1.513,1.513,0,0,0,6,5.3a2.1,2.1,0,0,0,.2.9c.125.237.286.184.4-.01.171-.293.1-.552.263-.986.092-.27.125-.062.092.1C6.874,5.742,6.9,6.442,7.545,6.432Zm-.976-1.7c.115-.306.125-.575-.01-.477-.115.085-.184,0-.092-.1.112-.141.26-.184.3.056A1.036,1.036,0,0,1,6.569,4.736Z" transform="translate(-3.519 0.16)" fill="#fff"/>
    </g>
  </g>
</svg>
