<svg xmlns="http://www.w3.org/2000/svg" width="46.686" height="38.296" viewBox="0 0 46.686 38.296">
  <g id="svgexport-7_4_" data-name="svgexport-7 (4)" transform="translate(0 -46.004)">
    <g id="Group_27" data-name="Group 27" transform="translate(33.895 56.972)">
      <g id="Group_26" data-name="Group 26" transform="translate(0 0)">
        <path id="Path_7277" data-name="Path 7277" d="M373.276,166.558a.912.912,0,1,0-1.295,1.284l.005.006a.9.9,0,0,0,.643.268.913.913,0,0,0,.646-1.558Z" transform="translate(-371.717 -166.288)" fill="#776352"/>
      </g>
    </g>
    <g id="Group_29" data-name="Group 29" transform="translate(8.39 46.004)">
      <g id="Group_28" data-name="Group 28" transform="translate(0 0)">
        <path id="Path_7278" data-name="Path 7278" d="M130.04,68.207l-8.469-8.469a.912.912,0,1,0-1.29,1.29L127,67.751H110.973a2.415,2.415,0,0,1-2.412-2.412V49.306l6.491,6.491a.912.912,0,0,0,1.29-1.29L108.1,46.271a.912.912,0,0,0-1.29,0L92.278,60.808a.912.912,0,0,0,0,1.29l21.936,21.936a.912.912,0,0,0,1.29,0L130.04,69.5a.912.912,0,0,0,0-1.29Zm-23.3-19.279V60.541H95.124Zm7.21,32.259L95.124,62.364h11.613v2.974a4.24,4.24,0,0,0,4.236,4.236h2.975Zm1.824,0V69.574h11.613Z" transform="translate(-92.011 -46.004)" fill="#776352"/>
      </g>
    </g>
    <g id="Group_31" data-name="Group 31" transform="translate(0 64.97)">
      <g id="Group_30" data-name="Group 30" transform="translate(0 0)">
        <path id="Path_7279" data-name="Path 7279" d="M6.258,254H.912a.912.912,0,0,0,0,1.824H6.258a.912.912,0,0,0,0-1.824Z" transform="translate(0 -253.999)" fill="#776352"/>
      </g>
    </g>
    <g id="Group_33" data-name="Group 33" transform="translate(8.051 64.97)">
      <g id="Group_32" data-name="Group 32" transform="translate(0 0)">
        <path id="Path_7280" data-name="Path 7280" d="M89.222,254h-.014a.912.912,0,0,0,0,1.824h.014a.912.912,0,0,0,0-1.824Z" transform="translate(-88.296 -253.999)" fill="#776352"/>
      </g>
    </g>
    <g id="Group_35" data-name="Group 35" transform="translate(0.001 55.396)">
      <g id="Group_34" data-name="Group 34">
        <path id="Path_7281" data-name="Path 7281" d="M3.843,149H.925a.912.912,0,0,0,0,1.824H3.843a.912.912,0,0,0,0-1.824Z" transform="translate(-0.013 -149.002)" fill="#776352"/>
      </g>
    </g>
    <g id="Group_37" data-name="Group 37" transform="translate(5.898 55.396)">
      <g id="Group_36" data-name="Group 36">
        <path id="Path_7282" data-name="Path 7282" d="M69.043,149H65.594a.912.912,0,1,0,0,1.824h3.449a.912.912,0,1,0,0-1.824Z" transform="translate(-64.682 -149.002)" fill="#776352"/>
      </g>
    </g>
    <g id="Group_39" data-name="Group 39" transform="translate(6.226 69.985)">
      <g id="Group_38" data-name="Group 38">
        <path id="Path_7283" data-name="Path 7283" d="M74.3,309H69.195a.912.912,0,1,0,0,1.824H74.3a.912.912,0,1,0,0-1.824Z" transform="translate(-68.283 -308.998)" fill="#776352"/>
      </g>
    </g>
    <g id="Group_41" data-name="Group 41" transform="translate(2.463 75.82)">
      <g id="Group_40" data-name="Group 40">
        <path id="Path_7284" data-name="Path 7284" d="M40.778,373H27.921a.912.912,0,1,0,0,1.824H40.778a.912.912,0,1,0,0-1.824Z" transform="translate(-27.009 -372.996)" fill="#776352"/>
      </g>
    </g>
  </g>
</svg>
