<svg id="vuesax_broken_search-favorite" data-name="vuesax/broken/search-favorite" xmlns="http://www.w3.org/2000/svg" width="29.423" height="29.423" viewBox="0 0 29.423 29.423">
  <g id="search-favorite">
    <path id="Vector" d="M0,11.033A11.034,11.034,0,0,1,11.033,0" transform="translate(2.452 2.452)" fill="none" stroke="#000" stroke-linecap="round" stroke-linejoin="round" stroke-width="1.5"/>
    <path id="Vector-2" data-name="Vector" d="M20.939,0A11.034,11.034,0,0,1,9.906,11.033,11.046,11.046,0,0,1,0,4.867" transform="translate(3.58 13.485)" fill="none" stroke="#000" stroke-linecap="round" stroke-linejoin="round" stroke-width="1.5"/>
    <path id="Vector-3" data-name="Vector" d="M.148,3.58A2.715,2.715,0,0,1,1.644.1,1.964,1.964,0,0,1,3.838.785,1.917,1.917,0,0,1,6.021.1a2.715,2.715,0,0,1,1.5,3.482A5.149,5.149,0,0,1,3.838,6.841,5.126,5.126,0,0,1,.148,3.58Z" transform="translate(16.402 3.935)" fill="none" stroke="#000" stroke-linecap="round" stroke-linejoin="round" stroke-width="1.5"/>
    <path id="Vector-4" data-name="Vector" d="M.123,2.415c.65,1.962,2.133,2.158,3.273.441C4.45,1.287,3.764,0,1.876,0A1.731,1.731,0,0,0,.123,2.415Z" transform="translate(23.256 23.293)" fill="none" stroke="#000" stroke-linecap="round" stroke-linejoin="round" stroke-width="1.5"/>
    <path id="Vector-5" data-name="Vector" d="M0,0H29.423V29.423H0Z" fill="none" opacity="0"/>
  </g>
</svg>
