<svg id="vuesax_broken_search-favoritew" data-name="vuesax/broken/search-favoritew" xmlns="http://www.w3.org/2000/svg" width="30.766" height="30.766" viewBox="0 0 30.766 30.766">
  <g id="search-favorite">
    <path id="Vector" d="M0,11.537A11.538,11.538,0,0,1,11.537,0" transform="translate(2.564 2.564)" fill="none" stroke="#fff" stroke-linecap="round" stroke-linejoin="round" stroke-width="1.5"/>
    <path id="Vector-2" data-name="Vector" d="M21.9,0A11.538,11.538,0,0,1,10.358,11.537,11.551,11.551,0,0,1,0,5.089" transform="translate(3.743 14.101)" fill="none" stroke="#fff" stroke-linecap="round" stroke-linejoin="round" stroke-width="1.5"/>
    <path id="Vector-3" data-name="Vector" d="M.155,3.743A2.839,2.839,0,0,1,1.719.1,2.054,2.054,0,0,1,4.014.821,2,2,0,0,1,6.3.1,2.839,2.839,0,0,1,7.859,3.743a5.385,5.385,0,0,1-3.846,3.41A5.36,5.36,0,0,1,.155,3.743Z" transform="translate(17.151 4.115)" fill="none" stroke="#fff" stroke-linecap="round" stroke-linejoin="round" stroke-width="1.5"/>
    <path id="Vector-4" data-name="Vector" d="M.129,2.525c.679,2.051,2.231,2.256,3.423.461C4.654,1.346,3.936,0,1.962,0A1.81,1.81,0,0,0,.129,2.525Z" transform="translate(24.318 24.357)" fill="none" stroke="#fff" stroke-linecap="round" stroke-linejoin="round" stroke-width="1.5"/>
    <path id="Vector-5" data-name="Vector" d="M0,0H30.766V30.766H0Z" fill="none" opacity="0"/>
  </g>
</svg>
