<svg xmlns="http://www.w3.org/2000/svg" width="21.506" height="19.279" viewBox="0 0 21.506 19.279">
  <g id="CART" transform="translate(0.75 0.75)">
    <g id="Group_23" data-name="Group 23">
      <path id="Icon_awesome-shopping-cart" data-name="Icon awesome-shopping-cart" d="M18.339,10.463,19.98,3.24a.833.833,0,0,0-.813-1.018H5.528L5.21.666A.833.833,0,0,0,4.394,0H.833A.833.833,0,0,0,0,.833v.556a.833.833,0,0,0,.833.833H3.26L5.7,14.148a1.945,1.945,0,1,0,2.328.3h7.28a1.944,1.944,0,1,0,2.208-.361l.192-.843a.833.833,0,0,0-.813-1.018H7.574l-.227-1.111H17.526A.833.833,0,0,0,18.339,10.463Z" fill="none" stroke="#fff" stroke-width="1.5"/>
    </g>
  </g>
</svg>
