<svg xmlns="http://www.w3.org/2000/svg" width="23.066" height="23.066" viewBox="0 0 23.066 23.066">
  <g id="Group_124" data-name="Group 124" transform="translate(-960.434 -630)">
    <g id="Group_116" data-name="Group 116" transform="translate(649.878 344.896)">
      <path id="Path_7317" data-name="Path 7317" d="M333.622,296.637c0,.761-1.1,1.4-1.242,2.118s.614,1.713.335,2.372-1.52.8-1.916,1.384-.057,1.784-.556,2.282-1.7.16-2.282.556-.724,1.637-1.384,1.916-1.654-.482-2.372-.335-1.357,1.242-2.118,1.242-1.4-1.1-2.118-1.242-1.713.614-2.372.335-.8-1.52-1.384-1.916-1.784-.057-2.282-.556-.16-1.7-.556-2.282-1.637-.724-1.916-1.384.482-1.654.335-2.372-1.242-1.357-1.242-2.118,1.1-1.4,1.242-2.118-.614-1.713-.335-2.372,1.52-.8,1.916-1.384.057-1.784.556-2.282,1.7-.16,2.282-.556.724-1.637,1.384-1.916,1.654.482,2.372.335,1.357-1.242,2.118-1.242,1.4,1.1,2.118,1.242,1.713-.614,2.372-.335.8,1.52,1.384,1.916,1.784.057,2.282.556.16,1.7.556,2.282,1.637.724,1.916,1.384-.482,1.654-.335,2.372S333.622,295.876,333.622,296.637Z" fill="#88ce97"/>
      <path id="Path_7318" data-name="Path 7318" d="M549.976,622.3l-1.111-1.111a.416.416,0,0,0-.589,0l-5.674,5.674-2.468-2.468a.416.416,0,0,0-.589,0l-1.111,1.111a.416.416,0,0,0,0,.589l3.873,3.873a.416.416,0,0,0,.589,0l7.079-7.079A.416.416,0,0,0,549.976,622.3Z" transform="translate(-222.117 -328.945)" fill="#fff"/>
    </g>
  </g>
</svg>
