<svg xmlns="http://www.w3.org/2000/svg" width="25.214" height="17.292" viewBox="0 0 25.214 17.292">
  <path id="Icon_awesome-eye" data-name="Icon awesome-eye" d="M23.545,11.8a13.19,13.19,0,0,0-11.7-7.3,13.192,13.192,0,0,0-11.7,7.3,1.33,1.33,0,0,0,0,1.2,13.19,13.19,0,0,0,11.7,7.3,13.192,13.192,0,0,0,11.7-7.3A1.33,1.33,0,0,0,23.545,11.8Zm-11.7-3.348A3.92,3.92,0,0,0,10.8,8.6a1.968,1.968,0,0,1-2.751,2.751,3.939,3.939,0,1,0,3.792-2.907Z" transform="translate(0.763 -3.75)" fill="none" stroke="#fff" stroke-width="1.5"/>
</svg>
