<svg xmlns="http://www.w3.org/2000/svg" width="37.038" height="37.03" viewBox="0 0 37.038 37.03">
  <g id="svgexport-7_5_" data-name="svgexport-7 (5)" transform="translate(0.002)">
    <path id="Path_7285" data-name="Path 7285" d="M282.164,0a.723.723,0,1,0,0,1.447,14.525,14.525,0,0,1,14.508,14.508.723.723,0,1,0,1.447,0A15.973,15.973,0,0,0,282.164,0Zm0,0" transform="translate(-261.084)" fill="#776352"/>
    <path id="Path_7286" data-name="Path 7286" d="M293.045,72.484a.724.724,0,0,0,.723-.723,11.617,11.617,0,0,0-11.6-11.6.723.723,0,1,0,0,1.447,10.168,10.168,0,0,1,10.157,10.157A.724.724,0,0,0,293.045,72.484Zm0,0" transform="translate(-261.085 -55.805)" fill="#776352"/>
    <path id="Path_7287" data-name="Path 7287" d="M287.969,127.58a.723.723,0,1,0,1.447,0,7.259,7.259,0,0,0-7.251-7.251.723.723,0,1,0,0,1.446,5.811,5.811,0,0,1,5.8,5.8Zm0,0" transform="translate(-261.085 -111.625)" fill="#776352"/>
    <path id="Path_7288" data-name="Path 7288" d="M281.441,181.207a.723.723,0,0,0,.723.723,1.454,1.454,0,0,1,1.452,1.453.723.723,0,1,0,1.447,0,2.9,2.9,0,0,0-2.9-2.9A.723.723,0,0,0,281.441,181.207Zm0,0" transform="translate(-261.084 -167.428)" fill="#776352"/>
    <path id="Path_7289" data-name="Path 7289" d="M168.881,315.4a.723.723,0,1,1-.723-.723A.723.723,0,0,1,168.881,315.4Zm0,0" transform="translate(-155.324 -291.916)" fill="#776352"/>
    <path id="Path_7290" data-name="Path 7290" d="M19.821,103a8.6,8.6,0,0,0,9.862-1.662l1.5-1.5a2.075,2.075,0,0,0,0-2.937L25.4,91.13a2.074,2.074,0,0,0-2.937,0l-2.456,2.456a1.431,1.431,0,0,1-1.765.233A27.134,27.134,0,0,1,15.69,91.97a.723.723,0,0,0-.916,1.12,28.529,28.529,0,0,0,2.689,1.949,2.886,2.886,0,0,0,3.566-.43l2.456-2.456a.629.629,0,0,1,.89,0l5.779,5.779a.629.629,0,0,1,0,.891l-1.5,1.5a7.153,7.153,0,0,1-8.2,1.386A40.085,40.085,0,0,1,2.17,83.323a7.1,7.1,0,0,1,1.389-8.171l1.463-1.463a.628.628,0,0,1,.89,0l5.78,5.78a.629.629,0,0,1,0,.89L9.236,82.815a2.886,2.886,0,0,0-.43,3.567c.417.653.867,1.3,1.337,1.915A.723.723,0,1,0,11.3,87.42c-.446-.586-.873-1.2-1.269-1.817a1.432,1.432,0,0,1,.233-1.765l2.455-2.455a2.075,2.075,0,0,0,0-2.937L6.935,72.666a2.074,2.074,0,0,0-2.937,0L2.536,74.129A8.545,8.545,0,0,0,.874,83.965,41.521,41.521,0,0,0,19.821,103Zm0,0" transform="translate(0 -66.845)" fill="#776352"/>
  </g>
</svg>
