<svg id="svgexport-7_7_" data-name="svgexport-7 (7)" xmlns="http://www.w3.org/2000/svg" width="91.028" height="57.581" viewBox="0 0 91.028 57.581">
  <g id="Group_74" data-name="Group 74" transform="translate(0 0)">
    <g id="Group_73" data-name="Group 73">
      <path id="Path_7300" data-name="Path 7300" d="M84.656,118.473,82.3,109.044a1.426,1.426,0,0,0,1.128-1.394v-1.52a5.993,5.993,0,0,0-5.986-5.986H66.7V97.008a2.949,2.949,0,0,0-2.946-2.946H9.027a2.949,2.949,0,0,0-2.946,2.946v25.845a1.425,1.425,0,0,0,2.851,0V97.008a.1.1,0,0,1,.095-.095H63.758a.1.1,0,0,1,.095.095v25.846a1.425,1.425,0,1,0,2.851,0v-1.616H83.525a4.664,4.664,0,0,1,4.429,3.231H83.522a1.425,1.425,0,0,0-1.425,1.425v3.041a4.471,4.471,0,0,0,4.466,4.466h1.615v6.271H84.451a9.024,9.024,0,0,0-17.061,0H66.7V128.934a1.425,1.425,0,1,0-2.851,0v10.737H34.281a9.024,9.024,0,0,0-17.061,0H9.027a.1.1,0,0,1-.095-.095V136.44h6.176a1.425,1.425,0,0,0,0-2.851H1.425a1.425,1.425,0,0,0,0,2.851H6.081v3.136a2.949,2.949,0,0,0,2.946,2.946h7.7c0,.032,0,.063,0,.095a9.027,9.027,0,1,0,18.054,0c0-.032,0-.063,0-.095H66.9c0,.032,0,.063,0,.095a9.027,9.027,0,1,0,18.054,0c0-.032,0-.063,0-.095H89.6a1.425,1.425,0,0,0,1.425-1.425v-15.2A7.518,7.518,0,0,0,84.656,118.473ZM66.7,102.994H77.441a3.139,3.139,0,0,1,3.136,3.136v.095H66.7Zm0,15.393v-9.312H79.369l2.328,9.312H66.7ZM25.75,148.793a6.176,6.176,0,1,1,6.176-6.176A6.183,6.183,0,0,1,25.75,148.793Zm50.17,0a6.176,6.176,0,1,1,6.176-6.176A6.183,6.183,0,0,1,75.92,148.793Zm12.258-18.244H86.563a1.617,1.617,0,0,1-1.615-1.615v-1.615h3.231v3.231Z" transform="translate(0 -94.062)" fill="#fff"/>
    </g>
  </g>
  <g id="Group_76" data-name="Group 76" transform="translate(22.805 45.609)">
    <g id="Group_75" data-name="Group 75">
      <path id="Path_7301" data-name="Path 7301" d="M131.213,350.6a2.946,2.946,0,1,0,2.946,2.946A2.949,2.949,0,0,0,131.213,350.6Z" transform="translate(-128.267 -350.597)" fill="#fff"/>
    </g>
  </g>
  <g id="Group_78" data-name="Group 78" transform="translate(72.975 45.609)">
    <g id="Group_77" data-name="Group 77">
      <path id="Path_7302" data-name="Path 7302" d="M413.4,350.6a2.946,2.946,0,1,0,2.946,2.946A2.949,2.949,0,0,0,413.4,350.6Z" transform="translate(-410.455 -350.597)" fill="#fff"/>
    </g>
  </g>
  <g id="Group_80" data-name="Group 80" transform="translate(36.487 39.528)">
    <g id="Group_79" data-name="Group 79" transform="translate(0 0)">
      <path id="Path_7303" data-name="Path 7303" d="M227.937,316.393H206.652a1.425,1.425,0,1,0,0,2.851h21.284a1.425,1.425,0,1,0,0-2.851Z" transform="translate(-205.227 -316.393)" fill="#fff"/>
    </g>
  </g>
  <g id="Group_82" data-name="Group 82" transform="translate(3.041 33.447)">
    <g id="Group_81" data-name="Group 81" transform="translate(0 0)">
      <path id="Path_7304" data-name="Path 7304" d="M36.771,282.188H18.527a1.425,1.425,0,0,0,0,2.851H36.771a1.425,1.425,0,0,0,0-2.851Z" transform="translate(-17.102 -282.188)" fill="#fff"/>
    </g>
  </g>
  <g id="Group_84" data-name="Group 84" transform="translate(25.845 13.683)">
    <g id="Group_83" data-name="Group 83">
      <path id="Path_7305" data-name="Path 7305" d="M169.087,171.44a1.425,1.425,0,0,0-2.016,0L154.4,184.115l-6.594-6.594a1.425,1.425,0,0,0-2.016,2.016l7.6,7.6a1.425,1.425,0,0,0,2.015,0l13.683-13.683A1.426,1.426,0,0,0,169.087,171.44Z" transform="translate(-145.37 -171.023)" fill="#fff"/>
    </g>
  </g>
</svg>
