<svg id="svgexport-7_6_" data-name="svgexport-7 (6)" xmlns="http://www.w3.org/2000/svg" width="91.028" height="77.343" viewBox="0 0 91.028 77.343">
  <g id="Group_56" data-name="Group 56" transform="translate(0 0)">
    <g id="Group_55" data-name="Group 55" transform="translate(0 0)">
      <path id="Path_7291" data-name="Path 7291" d="M84.656,82.659,82.3,73.23a1.426,1.426,0,0,0,1.128-1.394v-1.52a5.993,5.993,0,0,0-5.986-5.986H66.7V61.194a2.949,2.949,0,0,0-2.946-2.946H43.793L55.926,53.4a1.425,1.425,0,0,0-1.059-2.647l-9.934,3.973c3.027-1.942,6.022-4.08,7.162-5.575A6.638,6.638,0,1,0,41.539,41.1c-1.622,2.127-3.762,8.1-5.147,12.313C35.007,49.2,32.868,43.223,31.246,41.1A6.638,6.638,0,1,0,20.69,49.147c1.14,1.5,4.135,3.632,7.162,5.575l-9.934-3.973A1.425,1.425,0,0,0,16.859,53.4l12.132,4.853H9.027a2.949,2.949,0,0,0-2.946,2.946V87.039a1.425,1.425,0,0,0,2.851,0V61.194a.1.1,0,0,1,.095-.095H63.758a.1.1,0,0,1,.095.095V87.039a1.425,1.425,0,1,0,2.851,0V85.424H83.525a4.664,4.664,0,0,1,4.428,3.231H83.522A1.425,1.425,0,0,0,82.1,90.08V93.12a4.471,4.471,0,0,0,4.466,4.466h1.615v6.271H84.451a9.024,9.024,0,0,0-17.061,0H66.7V93.12a1.425,1.425,0,0,0-2.851,0v10.737H34.281a9.024,9.024,0,0,0-17.061,0H9.027a.1.1,0,0,1-.095-.095v-3.136h6.176a1.425,1.425,0,1,0,0-2.851H1.425a1.425,1.425,0,1,0,0,2.851H6.081v3.136a2.949,2.949,0,0,0,2.946,2.946h7.7c0,.032,0,.063,0,.095a9.027,9.027,0,0,0,18.054,0c0-.032,0-.063,0-.095H66.9c0,.032,0,.063,0,.095a9.027,9.027,0,0,0,18.054,0c0-.032,0-.063,0-.095H89.6a1.425,1.425,0,0,0,1.425-1.425V90.08A7.518,7.518,0,0,0,84.656,82.659ZM30.74,53.167c-5.622-3.494-7.29-5.1-7.784-5.749a3.787,3.787,0,0,1,6.023-4.593c1.379,1.808,3.538,7.892,4.964,12.277C32.981,54.536,31.875,53.873,30.74,53.167Zm8.1,1.935c1.426-4.384,3.585-10.469,4.963-12.277a3.787,3.787,0,0,1,6.023,4.593c-.494.647-2.161,2.255-7.783,5.748C40.91,53.872,39.8,54.535,38.842,55.1ZM66.7,67.18H77.441a3.139,3.139,0,0,1,3.136,3.136v.095H66.7Zm0,15.393V73.261H79.368L81.7,82.573ZM25.75,112.979a6.176,6.176,0,1,1,6.176-6.176A6.183,6.183,0,0,1,25.75,112.979Zm50.17,0A6.176,6.176,0,1,1,82.1,106.8,6.183,6.183,0,0,1,75.92,112.979ZM88.178,94.735H86.563a1.617,1.617,0,0,1-1.615-1.615V91.5h3.231v3.231Z" transform="translate(0 -38.486)" fill="#4d4d4d"/>
    </g>
  </g>
  <g id="Group_58" data-name="Group 58" transform="translate(22.805 65.371)">
    <g id="Group_57" data-name="Group 57">
      <path id="Path_7292" data-name="Path 7292" d="M131.213,406.172a2.946,2.946,0,1,0,2.946,2.946A2.949,2.949,0,0,0,131.213,406.172Z" transform="translate(-128.267 -406.172)" fill="#4d4d4d"/>
    </g>
  </g>
  <g id="Group_60" data-name="Group 60" transform="translate(72.975 65.371)">
    <g id="Group_59" data-name="Group 59">
      <path id="Path_7293" data-name="Path 7293" d="M413.4,406.172a2.946,2.946,0,1,0,2.946,2.946A2.949,2.949,0,0,0,413.4,406.172Z" transform="translate(-410.455 -406.172)" fill="#4d4d4d"/>
    </g>
  </g>
  <g id="Group_62" data-name="Group 62" transform="translate(36.487 59.29)">
    <g id="Group_61" data-name="Group 61">
      <path id="Path_7294" data-name="Path 7294" d="M227.937,371.967H206.652a1.425,1.425,0,1,0,0,2.851h21.284a1.425,1.425,0,0,0,0-2.851Z" transform="translate(-205.227 -371.967)" fill="#4d4d4d"/>
    </g>
  </g>
  <g id="Group_64" data-name="Group 64" transform="translate(3.041 53.208)">
    <g id="Group_63" data-name="Group 63">
      <path id="Path_7295" data-name="Path 7295" d="M36.771,337.763H18.527a1.425,1.425,0,1,0,0,2.851H36.771a1.425,1.425,0,1,0,0-2.851Z" transform="translate(-17.102 -337.763)" fill="#4d4d4d"/>
    </g>
  </g>
  <g id="Group_66" data-name="Group 66" transform="translate(15.203 31.924)">
    <g id="Group_65" data-name="Group 65">
      <path id="Path_7296" data-name="Path 7296" d="M93.018,218.046H86.936a1.425,1.425,0,0,0-1.425,1.425v12.162a1.425,1.425,0,1,0,2.851,0v-4.656H91.5a1.425,1.425,0,0,0,0-2.851H88.362V220.9h4.656a1.425,1.425,0,1,0,0-2.851Z" transform="translate(-85.511 -218.046)" fill="#4d4d4d"/>
    </g>
  </g>
  <g id="Group_68" data-name="Group 68" transform="translate(25.845 31.924)">
    <g id="Group_67" data-name="Group 67" transform="translate(0 0)">
      <path id="Path_7297" data-name="Path 7297" d="M153.45,227.646a5.224,5.224,0,0,0-2.855-9.6h-3.8a1.425,1.425,0,0,0-1.425,1.425v12.162a1.425,1.425,0,1,0,2.851,0V228.5h2.373l2.617,3.926a1.425,1.425,0,1,0,2.372-1.581Zm-2.855-2H148.22V220.9H150.6a2.375,2.375,0,1,1,0,4.751Z" transform="translate(-145.369 -218.046)" fill="#4d4d4d"/>
    </g>
  </g>
  <g id="Group_70" data-name="Group 70" transform="translate(38.008 31.924)">
    <g id="Group_69" data-name="Group 69">
      <path id="Path_7298" data-name="Path 7298" d="M221.285,230.209h-4.656v-3.235c.031,0,.063,0,.095,0h3.041a1.425,1.425,0,1,0,0-2.851h-3.041c-.032,0-.063,0-.095,0V220.9h4.656a1.425,1.425,0,0,0,0-2.851H215.2a1.425,1.425,0,0,0-1.425,1.425v12.162a1.425,1.425,0,0,0,1.425,1.425h6.081a1.425,1.425,0,1,0,0-2.851Z" transform="translate(-213.778 -218.046)" fill="#4d4d4d"/>
    </g>
  </g>
  <g id="Group_72" data-name="Group 72" transform="translate(48.65 31.924)">
    <g id="Group_71" data-name="Group 71">
      <path id="Path_7299" data-name="Path 7299" d="M281.143,230.209h-4.656v-3.231H278.1a1.425,1.425,0,0,0,0-2.851h-1.615V220.9h4.656a1.425,1.425,0,1,0,0-2.851h-6.081a1.425,1.425,0,0,0-1.425,1.425v12.162a1.425,1.425,0,0,0,1.425,1.425h6.081a1.425,1.425,0,1,0,0-2.851Z" transform="translate(-273.636 -218.046)" fill="#4d4d4d"/>
    </g>
  </g>
</svg>
