<svg xmlns="http://www.w3.org/2000/svg" width="83.944" height="83.581" viewBox="0 0 83.944 83.581">
  <g id="svgexport-7_8_" data-name="svgexport-7 (8)" transform="translate(0 0)">
    <g id="Layer_2" data-name="Layer 2" transform="translate(0 0)">
      <g id="Layer_1" data-name="Layer 1">
        <g id="payment_option" data-name="payment option">
          <path id="Path_7306" data-name="Path 7306" d="M81.175,21.317H62.847l.525-1.854a5.088,5.088,0,0,0-3.487-6.282L14.53.2A5.086,5.086,0,0,0,8.246,3.683L5.2,14.341l-.827,2.891L.2,31.812a5.093,5.093,0,0,0,3.486,6.282l12.865,3.683V55.541a2.774,2.774,0,0,0,2.77,2.77h14.3a13.785,13.785,0,0,1-2.8,7.1c-5.972,7.015-3.323,16.83-3.2,17.244a1.27,1.27,0,0,0,1.224.927,1.225,1.225,0,0,0,.35-.045,1.27,1.27,0,0,0,.874-1.574c-.024-.089-2.417-8.919,2.69-14.913,4.748-5.582,3.8-15.107,3.164-21.412-.1-1.018-.2-1.955-.255-2.781a3.917,3.917,0,0,1,1.086-2.973,4.778,4.778,0,0,1,3.5-1.516,4.871,4.871,0,0,1,3.524,1.541,3.832,3.832,0,0,1,1.049,2.929c-1.829,22.228,4.516,25.99,5.247,26.347A1.271,1.271,0,0,0,51.18,66.9c-.037-.017-2.448-1.616-3.571-8.6h16.28c.782,7.545-3.041,16.17-7.424,23.273A1.27,1.27,0,1,0,58.627,82.9C64.449,73.469,67.022,65.146,66.4,58.3h14.78a2.774,2.774,0,0,0,2.763-2.755V24.085a2.772,2.772,0,0,0-2.77-2.769Zm.231,2.769v6.048a7.732,7.732,0,0,1-6.17-6.279h5.946a.233.233,0,0,1,.224.231ZM10.69,4.381a2.55,2.55,0,0,1,3.148-1.749L59.192,15.621a2.546,2.546,0,0,1,1.749,3.148L60.1,21.705,9.85,7.315Zm-2.7,9.435L9.151,9.753,59.4,24.134l-1.99,6.954L7.169,16.709Zm11.1,41.718V49.46a7.7,7.7,0,0,1,6.31,6.31H19.317a.229.229,0,0,1-.231-.229Zm14.766.229H27.981a10.256,10.256,0,0,0-8.886-8.884V42.5l14.369,4.115a62.5,62.5,0,0,1,.388,9.157Zm6.385-19.911a7.325,7.325,0,0,0-5.353,2.325,6.427,6.427,0,0,0-1.76,4.88c.019.266.047.561.072.848L4.381,35.651A2.548,2.548,0,0,1,2.632,32.5L6.47,19.155,56.717,33.535,52.885,46.893a2.545,2.545,0,0,1-3.148,1.749l-2.671-.763c.045-1.492.131-3.085.273-4.809a6.357,6.357,0,0,0-1.717-4.862,7.345,7.345,0,0,0-5.385-2.356Zm7.041,19.925c-.149-1.543-.236-3.295-.245-5.268l2.011.575A5.082,5.082,0,0,0,55.327,47.6L59.5,33.019l.619-2.167,2-7H72.66A10.3,10.3,0,0,0,81.4,32.718v14.2a10.3,10.3,0,0,0-8.744,8.858Zm33.9,0H75.229a7.73,7.73,0,0,1,6.177-6.284v6.048a.229.229,0,0,1-.231.229Z" transform="translate(-0.002 -0.001)" fill="#fff"/>
          <path id="Path_7307" data-name="Path 7307" d="M22.343,20.444,6.351,15.867a1.273,1.273,0,1,0-.7,2.448l15.992,4.573a1.273,1.273,0,1,0,.7-2.448Z" transform="translate(3.538 11.845)" fill="#fff"/>
          <path id="Path_7308" data-name="Path 7308" d="M41.275,19.86a5.081,5.081,0,1,0,5.082,5.072A5.081,5.081,0,0,0,41.275,19.86Zm0,7.62a2.539,2.539,0,1,1,2.541-2.541A2.539,2.539,0,0,1,41.275,27.48Z" transform="translate(27.104 14.872)" fill="#fff"/>
        </g>
      </g>
    </g>
  </g>
</svg>
