<svg xmlns="http://www.w3.org/2000/svg" width="235.258" height="196.502" viewBox="0 0 235.258 196.502">
  <g id="undraw_online_reading_np7n_1_" data-name="undraw_online_reading_np7n (1)" transform="translate(0)">
    <path id="Path_7931" data-name="Path 7931" d="M412.429,146.5H185.33a4.086,4.086,0,0,0-4.08,4.08V284.754a4.086,4.086,0,0,0,4.08,4.08h227.1a4.086,4.086,0,0,0,4.08-4.08V150.58a4.086,4.086,0,0,0-4.08-4.08ZM415.6,284.754a3.177,3.177,0,0,1-3.173,3.173H185.33a3.177,3.177,0,0,1-3.173-3.173V150.58a3.177,3.177,0,0,1,3.173-3.173h227.1a3.177,3.177,0,0,1,3.173,3.173Z" transform="translate(-181.25 -146.5)" fill="#3f3d56"/>
    <rect id="Rectangle_3424" data-name="Rectangle 3424" width="234.668" height="0.835" transform="translate(0.453 15.229)" fill="#3f3d56"/>
    <circle id="Ellipse_50" data-name="Ellipse 50" cx="2.266" cy="2.266" r="2.266" transform="translate(5.893 5.666)" fill="#ccc"/>
    <circle id="Ellipse_51" data-name="Ellipse 51" cx="2.266" cy="2.266" r="2.266" transform="translate(12.692 5.666)" fill="#ccc"/>
    <circle id="Ellipse_52" data-name="Ellipse 52" cx="2.266" cy="2.266" r="2.266" transform="translate(19.492 5.666)" fill="#ccc"/>
    <path id="Path_7932" data-name="Path 7932" d="M424.8,422.548H315.1a3.857,3.857,0,0,1-3.853-3.853V295.853A3.857,3.857,0,0,1,315.1,292H424.8a3.857,3.857,0,0,1,3.853,3.853V418.7A3.857,3.857,0,0,1,424.8,422.548Z" transform="translate(-252.322 -226.046)" fill="#776352"/>
    <path id="Path_7933" data-name="Path 7933" d="M427.284,417.332H362.916a5.666,5.666,0,0,1,0-11.332h64.367a5.666,5.666,0,1,1,0,11.332Z" transform="translate(-277.471 -288.371)" fill="#fff"/>
    <path id="Path_7934" data-name="Path 7934" d="M427.284,463.832H362.916a5.666,5.666,0,0,1,0-11.332h64.367a5.666,5.666,0,1,1,0,11.332Z" transform="translate(-277.471 -313.793)" fill="#fff"/>
    <path id="Path_7935" data-name="Path 7935" d="M427.284,510.832H362.916a5.666,5.666,0,1,1,0-11.332h64.367a5.666,5.666,0,1,1,0,11.332Z" transform="translate(-277.471 -339.488)" fill="#fff"/>
    <path id="Path_7936" data-name="Path 7936" d="M431.347,355.832H406.416a5.666,5.666,0,1,1,0-11.332h24.931a5.666,5.666,0,1,1,0,11.332Z" transform="translate(-301.252 -254.748)" fill="#fff"/>
    <rect id="Rectangle_3425" data-name="Rectangle 3425" width="196.253" height="10.021" rx="5.011" transform="translate(19.661 31.932)" fill="#ccc"/>
  </g>
</svg>
