<svg id="vuesax_broken_search-favoritee" data-name="vuesax/broken/search-favoritee" xmlns="http://www.w3.org/2000/svg" width="75.833" height="75.833" viewBox="0 0 75.833 75.833">
  <g id="search-favorite">
    <path id="Vector" d="M0,28.437A28.44,28.44,0,0,1,28.437,0" transform="translate(6.319 6.319)" fill="none" stroke="#000" stroke-linecap="round" stroke-linejoin="round" stroke-width="1.5"/>
    <path id="Vector-2" data-name="Vector" d="M53.968,0A28.44,28.44,0,0,1,25.53,28.437,28.471,28.471,0,0,1,0,12.544" transform="translate(9.226 34.757)" fill="none" stroke="#000" stroke-linecap="round" stroke-linejoin="round" stroke-width="1.5"/>
    <path id="Vector-3" data-name="Vector" d="M.382,9.227C-.724,5.751.572,1.422,4.237.253A5.063,5.063,0,0,1,9.893,2.023,4.942,4.942,0,0,1,15.517.253c3.665,1.169,4.961,5.5,3.855,8.974-1.738,5.529-7.8,8.4-9.479,8.4C8.187,17.631,2.183,14.819.382,9.227Z" transform="translate(42.274 10.142)" fill="none" stroke="#000" stroke-linecap="round" stroke-linejoin="round" stroke-width="1.5"/>
    <path id="Vector-4" data-name="Vector" d="M.317,6.225c1.675,5.056,5.5,5.561,8.436,1.137C11.471,3.318,9.7,0,4.835,0,1.2,0-.821,2.812.317,6.225Z" transform="translate(59.939 60.034)" fill="none" stroke="#000" stroke-linecap="round" stroke-linejoin="round" stroke-width="1.5"/>
    <path id="Vector-5" data-name="Vector" d="M0,0H75.833V75.833H0Z" fill="none" opacity="0"/>
  </g>
</svg>
