<svg id="vuesax_broken_trash" data-name="vuesax/broken/trash" xmlns="http://www.w3.org/2000/svg" width="24.149" height="24.149" viewBox="0 0 24.149 24.149">
  <g id="trash" transform="translate(0 0)">
    <path id="Vector" d="M18.112.5C14.761.171,11.39,0,8.03,0A59.435,59.435,0,0,0,2.053.3L0,.5" transform="translate(3.019 5.514)" fill="none" stroke="#ec5353" stroke-linecap="round" stroke-linejoin="round" stroke-width="1.5"/>
    <path id="Vector-2" data-name="Vector" d="M0,2.988.221,1.67C.382.714.5,0,2.2,0H4.84c1.7,0,1.831.755,1.982,1.68l.221,1.308" transform="translate(8.553 2.012)" fill="none" stroke="#ec5353" stroke-linecap="round" stroke-linejoin="round" stroke-width="1.5"/>
    <path id="Vector-3" data-name="Vector" d="M10.122,12.94H3.663c-2.807,0-2.9-1.228-3.009-2.807L0,0" transform="translate(5.182 9.197)" fill="none" stroke="#ec5353" stroke-linecap="round" stroke-linejoin="round" stroke-width="1.5"/>
    <path id="Vector-4" data-name="Vector" d="M.654,0,0,10.132" transform="translate(18.313 9.197)" fill="none" stroke="#ec5353" stroke-linecap="round" stroke-linejoin="round" stroke-width="1.5"/>
    <path id="Vector-5" data-name="Vector" d="M0,0H3.351" transform="translate(10.394 16.602)" fill="none" stroke="#ec5353" stroke-linecap="round" stroke-linejoin="round" stroke-width="1.5"/>
    <path id="Vector-6" data-name="Vector" d="M0,0H1.69" transform="translate(12.9 12.578)" fill="none" stroke="#ec5353" stroke-linecap="round" stroke-linejoin="round" stroke-width="1.5"/>
    <path id="Vector-7" data-name="Vector" d="M0,0H.835" transform="translate(9.559 12.578)" fill="none" stroke="#ec5353" stroke-linecap="round" stroke-linejoin="round" stroke-width="1.5"/>
    <path id="Vector-8" data-name="Vector" d="M0,0H24.149V24.149H0Z" fill="none" opacity="0"/>
  </g>
</svg>
